# xmcd CD database file
#
# Track frame offsets:
#	182
#	19897
#	36837
#	54890
#	70880
#	95345
#	118062
#	134115
#	151355
#	170747
#	186505
#	200857
#
# Disc length: 2841 seconds
#
# Revision: 0
# Processed by: cddbd v1.4PL0 Copyright (c) Steve Scherf et al.
# Submitted via: CDex 1.50Beta3
#
DISCID=b50b170c
DTITLE=Montana Rose - All Night Rodeo
DYEAR=1900
DGENRE=Country
TTITLE0=End Of An Age 
TTITLE1=I Should've Took That Train 
TTITLE2=Back Shack 
TTITLE3=Magic Time 
TTITLE4=All Night Rodeo
TTITLE5=Loose Tubes 
TTITLE6=Someday Love 
TTITLE7=I Plead The Fifth 
TTITLE8=Just Be Around 
TTITLE9=If It Wasn't For The Wind 
TTITLE10=Let It Rain 
TTITLE11=Loose Tubes 
EXTD=
EXTT0=
EXTT1=
EXTT2=
EXTT3=
EXTT4=
EXTT5=
EXTT6=
EXTT7=
EXTT8=
EXTT9=
EXTT10=
EXTT11=
PLAYORDER=
